<svg width="240" height="45" viewBox="0 0 240 45" fill="none" xmlns="http://www.w3.org/2000/svg">
<g clip-path="url(#clip0)">
<path d="M33.7012 18.5983C33.7012 16.2638 35.5936 14.3714 37.9281 14.3714H46.8045C51.4734 14.3714 55.2583 18.1563 55.2583 22.8252V22.8252H37.9281C35.5936 22.8252 33.7012 20.9327 33.7012 18.5983V18.5983Z" fill="white"/>
<path d="M23.3982 7.63014L30.9324 2.35465L57.273 39.973V39.973C53.112 42.8865 47.3769 41.8753 44.4633 37.7143L23.3982 7.63014Z" fill="white"/>
<path d="M35.8745 7.63014L28.3403 2.35465L1.9997 39.973V39.973C6.16072 42.8865 11.8958 41.8753 14.8094 37.7143L35.8745 7.63014Z" fill="white"/>
<path d="M4.11304 0H46.8046C51.4735 0 55.2583 3.78488 55.2583 8.45377V8.45377H12.5668C7.89792 8.45377 4.11304 4.66889 4.11304 0V0Z" fill="white"/>
<path d="M82.9865 12.8831H69.914V9H90.154L75.3711 34.7663H89.5432V38.7303H68L82.9865 12.8831Z" fill="white"/>
<path d="M100.718 18.8831L110.329 38.7303H106.827L105.117 34.8472H95.9672L94.2568 38.7303H90.8631L100.42 18.8831H100.718ZM99.3609 27.3236L97.1889 32.1236H103.922L101.777 27.3506L100.61 24.627H100.555L99.3609 27.3236Z" fill="white"/>
<path d="M111.974 18.9101H121.34V21.5258H114.987V27.1348H119.929V29.7775H114.987V38.7303H111.974V18.9101Z" fill="white"/>
<path d="M134.638 38.7303L130.62 31.2337C129.787 31.2697 129.045 31.2876 128.394 31.2876H127.634V38.7303H124.674V18.9101H129.208C131.507 18.9101 133.398 19.3865 134.882 20.3393C136.367 21.2742 137.109 22.8022 137.109 24.9236C137.109 26.2539 136.792 27.4045 136.158 28.3753C135.543 29.3281 134.62 30.0652 133.389 30.5865L138.14 38.7303H134.638ZM129.561 28.8337C131.335 28.8337 132.548 28.4562 133.199 27.7011C133.869 26.9281 134.204 26.0112 134.204 24.9506C134.204 22.5955 132.62 21.418 129.453 21.418H127.634V28.8337H129.561Z" fill="white"/>
<path d="M148.548 18.8831L158.159 38.7303H154.657L152.946 34.8472H143.797L142.087 38.7303H138.693L148.25 18.8831H148.548ZM147.191 27.3236L145.019 32.1236H151.752L149.607 27.3506L148.44 24.627H148.385L147.191 27.3236Z" fill="white"/>
<path d="M168.376 9H175.584C181.612 9 185.82 10.4157 188.209 13.2472C190.625 16.0786 191.833 19.4494 191.833 23.3595C191.833 26.0831 191.318 28.6045 190.286 30.9236C189.254 33.2157 187.544 35.0899 185.155 36.5461C182.793 38.0022 179.684 38.7303 175.829 38.7303H168.376V9ZM176.317 34.7258C180.064 34.7258 182.779 33.6742 184.462 31.5708C186.173 29.4404 187.028 26.7708 187.028 23.5618C187.028 20.4337 186.173 17.8854 184.462 15.9169C182.752 13.9483 180.037 12.964 176.317 12.964H172.937V34.7258H176.317Z" fill="white"/>
<path d="M195.328 18.9101H204.07V21.5528H198.342V27.027H202.957V29.7236H198.342V36.0607H204.966V38.7303H195.328V18.9101Z" fill="white"/>
<path d="M205.476 18.9101H208.924L214.897 32.5281L220.897 18.9101H224.318L215.115 38.7303H214.707L205.476 18.9101Z" fill="white"/>
<path d="M230.593 39C229.507 39 228.43 38.8112 227.362 38.4337C226.294 38.0562 225.525 37.6337 225.054 37.1663L226.493 34.6045C226.873 34.9461 227.461 35.3056 228.258 35.6831C229.072 36.0427 229.851 36.2225 230.593 36.2225C231.552 36.2225 232.33 35.9978 232.928 35.5483C233.543 35.0989 233.851 34.4787 233.851 33.6876C233.851 33.0764 233.688 32.5461 233.362 32.0966C233.036 31.6472 232.638 31.2786 232.167 30.991C231.697 30.6854 231.027 30.3169 230.158 29.8854C229.127 29.382 228.421 29.0045 228.041 28.7528C226.285 27.5843 225.407 25.9663 225.407 23.8989C225.407 22.191 225.977 20.8876 227.118 19.9888C228.258 19.0719 229.697 18.6135 231.434 18.6135C233.299 18.6135 234.882 19.1438 236.186 20.2045L234.747 22.6584C234.403 22.2989 233.914 21.9933 233.281 21.7416C232.665 21.4719 232.004 21.3371 231.299 21.3371C230.394 21.3371 229.679 21.5438 229.154 21.9573C228.647 22.3528 228.394 22.9461 228.394 23.7371C228.394 24.2944 228.556 24.7978 228.882 25.2472C229.208 25.6787 229.615 26.0562 230.104 26.3798C230.611 26.7034 231.29 27.0989 232.14 27.5663C232.955 28.0157 233.579 28.3753 234.014 28.6449C234.448 28.8966 234.855 29.2022 235.235 29.5618C235.76 30.0292 236.186 30.5865 236.511 31.2337C236.837 31.8809 237 32.591 237 33.364C237 34.5685 236.719 35.5933 236.158 36.4382C235.615 37.2831 234.855 37.9213 233.878 38.3528C232.919 38.7843 231.823 39 230.593 39Z" fill="white"/>
<path d="M82.9865 12.8831H69.914V9H90.154L75.3711 34.7663H89.5432V38.7303H68L82.9865 12.8831Z" stroke="white" stroke-width="2"/>
<path d="M100.718 18.8831L110.329 38.7303H106.827L105.117 34.8472H95.9672L94.2568 38.7303H90.8631L100.42 18.8831H100.718ZM99.3609 27.3236L97.1889 32.1236H103.922L101.777 27.3506L100.61 24.627H100.555L99.3609 27.3236Z" stroke="white" stroke-width="2"/>
<path d="M111.974 18.9101H121.34V21.5258H114.987V27.1348H119.929V29.7775H114.987V38.7303H111.974V18.9101Z" stroke="white" stroke-width="2"/>
<path d="M134.638 38.7303L130.62 31.2337C129.787 31.2697 129.045 31.2876 128.394 31.2876H127.634V38.7303H124.674V18.9101H129.208C131.507 18.9101 133.398 19.3865 134.882 20.3393C136.367 21.2742 137.109 22.8022 137.109 24.9236C137.109 26.2539 136.792 27.4045 136.158 28.3753C135.543 29.3281 134.62 30.0652 133.389 30.5865L138.14 38.7303H134.638ZM129.561 28.8337C131.335 28.8337 132.548 28.4562 133.199 27.7011C133.869 26.9281 134.204 26.0112 134.204 24.9506C134.204 22.5955 132.62 21.418 129.453 21.418H127.634V28.8337H129.561Z" stroke="white" stroke-width="2"/>
<path d="M148.548 18.8831L158.159 38.7303H154.657L152.946 34.8472H143.797L142.087 38.7303H138.693L148.25 18.8831H148.548ZM147.191 27.3236L145.019 32.1236H151.752L149.607 27.3506L148.44 24.627H148.385L147.191 27.3236Z" stroke="white" stroke-width="2"/>
<path d="M168.376 9H175.584C181.612 9 185.82 10.4157 188.209 13.2472C190.625 16.0786 191.833 19.4494 191.833 23.3595C191.833 26.0831 191.318 28.6045 190.286 30.9236C189.254 33.2157 187.544 35.0899 185.155 36.5461C182.793 38.0022 179.684 38.7303 175.829 38.7303H168.376V9ZM176.317 34.7258C180.064 34.7258 182.779 33.6742 184.462 31.5708C186.173 29.4404 187.028 26.7708 187.028 23.5618C187.028 20.4337 186.173 17.8854 184.462 15.9169C182.752 13.9483 180.037 12.964 176.317 12.964H172.937V34.7258H176.317Z" stroke="white" stroke-width="2"/>
<path d="M195.328 18.9101H204.07V21.5528H198.342V27.027H202.957V29.7236H198.342V36.0607H204.966V38.7303H195.328V18.9101Z" stroke="white" stroke-width="2"/>
<path d="M205.476 18.9101H208.924L214.897 32.5281L220.897 18.9101H224.318L215.115 38.7303H214.707L205.476 18.9101Z" stroke="white" stroke-width="2"/>
<path d="M230.593 39C229.507 39 228.43 38.8112 227.362 38.4337C226.294 38.0562 225.525 37.6337 225.054 37.1663L226.493 34.6045C226.873 34.9461 227.461 35.3056 228.258 35.6831C229.072 36.0427 229.851 36.2225 230.593 36.2225C231.552 36.2225 232.33 35.9978 232.928 35.5483C233.543 35.0989 233.851 34.4787 233.851 33.6876C233.851 33.0764 233.688 32.5461 233.362 32.0966C233.036 31.6472 232.638 31.2786 232.167 30.991C231.697 30.6854 231.027 30.3169 230.158 29.8854C229.127 29.382 228.421 29.0045 228.041 28.7528C226.285 27.5843 225.407 25.9663 225.407 23.8989C225.407 22.191 225.977 20.8876 227.118 19.9888C228.258 19.0719 229.697 18.6135 231.434 18.6135C233.299 18.6135 234.882 19.1438 236.186 20.2045L234.747 22.6584C234.403 22.2989 233.914 21.9933 233.281 21.7416C232.665 21.4719 232.004 21.3371 231.299 21.3371C230.394 21.3371 229.679 21.5438 229.154 21.9573C228.647 22.3528 228.394 22.9461 228.394 23.7371C228.394 24.2944 228.556 24.7978 228.882 25.2472C229.208 25.6787 229.615 26.0562 230.104 26.3798C230.611 26.7034 231.29 27.0989 232.14 27.5663C232.955 28.0157 233.579 28.3753 234.014 28.6449C234.448 28.8966 234.855 29.2022 235.235 29.5618C235.76 30.0292 236.186 30.5865 236.511 31.2337C236.837 31.8809 237 32.591 237 33.364C237 34.5685 236.719 35.5933 236.158 36.4382C235.615 37.2831 234.855 37.9213 233.878 38.3528C232.919 38.7843 231.823 39 230.593 39Z" stroke="white" stroke-width="2"/>
</g>
<defs>
<clipPath id="clip0">
<rect width="240" height="45" fill="white"/>
</clipPath>
</defs>
</svg>
